<svg width="225" height="346" viewBox="0 0 225 346" fill="none" xmlns="http://www.w3.org/2000/svg">
<g clip-path="url(#clip0_159_4716)">
<path d="M81.9486 118.544C93.0431 116.325 96.6269 110.038 96.6269 110.038C96.6269 110.038 91.9601 102.871 79.6857 104.253C64.7169 105.953 63.0703 114.899 63.0703 114.899C65.8231 116.717 68.9073 117.975 72.1466 118.6C75.3859 119.226 78.7167 119.207 81.9486 118.544Z" fill="white"/>
<path d="M71.6973 111.861C71.6973 113.124 72.0717 114.358 72.7731 115.408C73.4746 116.458 74.4716 117.276 75.6381 117.759C76.8045 118.242 78.0881 118.369 79.3264 118.122C80.5647 117.876 81.7022 117.268 82.595 116.375C83.4878 115.483 84.0958 114.345 84.3421 113.107C84.5884 111.868 84.462 110.585 83.9789 109.418C83.4957 108.252 82.6775 107.255 81.6277 106.553C80.5779 105.852 79.3436 105.478 78.081 105.478C76.3879 105.478 74.7642 106.15 73.567 107.347C72.3698 108.544 71.6973 110.168 71.6973 111.861Z" fill="#1C1C1C"/>
<path d="M359.244 189.171C322.702 168.751 311.696 161.558 279.918 181.079C276.748 183.025 273.842 184.751 271.166 186.283L269.968 186.177C271.016 176.298 269.968 164.463 260.124 161.012C239.229 153.73 210.383 191.046 198.91 185.305C192.87 182.285 221.804 165.67 195.485 158.344C177.813 153.413 146.449 176.835 131.146 189.541C125.114 189.963 121.345 190.342 120.808 190.624C120.808 190.624 211.739 133.443 161.99 87.2154C154.233 80.004 147.55 79.5197 139.37 76.1561C172.829 77.9171 206.967 72.8894 199.976 33.2308C199.976 33.2308 142.082 45.197 124.524 73.8668C122.103 72.9109 119.631 72.0907 117.119 71.4101C139.651 51.9859 153.114 36.2862 139 0C139 0 107.301 37.3076 103.163 69.2704C86.0893 68.5308 74.6426 75.0378 74.6426 75.0378C74.6426 75.0378 79.4414 80.321 80.6037 83.4468C72.4237 89.1878 28.9789 119.891 18.4919 139.034C7.04516 159.92 36.2344 191.108 81.449 159.348L105.998 142.151C97.4657 166.348 70.8212 189.99 47.4962 211.307C-18.9566 272.019 55.236 318.792 55.236 318.792C55.236 318.792 48.4207 282.55 52.2774 272.301C57.8247 257.517 64.3141 253.563 73.1809 253.246C69.7909 256.055 66.7884 260.783 64.9217 268.417C57.3932 299.236 69.4299 345.903 69.4299 345.903L97.2631 345.956C97.2631 345.956 101.956 217.77 217.894 242.68C282.947 256.663 226.532 345.947 226.532 345.947C242.302 345.709 239.652 345.85 263.03 346L265.777 344.468C274.829 339.387 311.916 307.988 303.789 241.632C300.328 213.411 286.011 201.357 280.349 194.595C280.27 193.714 280.209 192.895 280.156 192.173C285.906 189.276 293.689 186.837 304.159 185.886C327.589 183.773 333.735 191.46 352.006 218.334C370.277 245.207 405.568 202.229 405.568 202.229C405.568 202.229 395.794 209.599 359.244 189.171ZM81.9421 118.527C78.7057 119.186 75.371 119.201 72.1288 118.571C68.8865 117.941 65.8002 116.678 63.0462 114.855C63.0462 114.855 64.6751 105.9 79.6704 104.209C91.936 102.827 96.6027 109.986 96.6027 109.986C96.6027 109.986 93.0278 116.273 81.9333 118.491" fill="#006AA9"/>
<path d="M70.6452 194.824L69.9232 178.455L63.4162 195.546L55.4739 184.231L60.5281 199.403L44.1504 203.744L59.3218 206.385L51.6172 222.763L65.8288 210.726L69.6854 231.682L73.7799 211.202L88.7047 217.224L77.39 204.466L91.1173 195.308L75.4616 196.999L81.2467 183.263L70.6452 194.824Z" fill="#1C1C1C"/>
</g>
<path d="M16.0725 325.82C25.3744 325.82 30.7557 321.701 31.6502 313.998L28.0103 313.551C27.1396 318.929 23.7757 321.587 18.0185 321.587C11.324 321.587 8.24085 317.36 8.24085 309.223V308.415C8.24085 300.768 10.8482 297.406 15.8917 297.406C20.5117 297.406 22.924 300.15 23.2571 306.674V308.049L31.3838 306.955C30.77 299.199 25.6409 295 15.9441 295C5.57637 295 0 300.231 0 310.036V310.483C0 320.47 5.55258 325.805 16.0582 325.805L16.0725 325.82ZM44.4587 325.12V311.087H49.6925C52.495 311.087 53.6702 311.958 54.7646 315.429L55.8541 318.9C56.9485 322.4 57.4528 323.803 58.3759 325.12H67.5969L67.6825 324.417C66.3075 323.689 64.9895 322.148 63.7572 318.563L62.5534 314.954C61.3211 311.368 59.6368 310.36 55.5496 309.827V309.323C59.1895 308.791 60.4218 307.811 61.7683 304.758L63.1148 301.734C64.4566 298.681 65.8602 297.088 67.202 296.412L67.1496 295.713H58.1094C57.1864 296.916 56.6249 298.148 55.4783 301.344L54.3268 304.535C53.1801 307.725 52.2285 308.453 49.6783 308.453H44.4587V295.713H36.3035V325.12H44.4587ZM77.798 325.791C83.8217 325.791 88.5035 322.876 90.3544 317.555L90.9111 317.697C90.1022 323.404 91.4725 325.781 96.2924 325.781C98.3383 325.781 99.8799 325.111 100.998 323.623L101.25 321.497C99.0092 322.253 98.029 322.029 98.029 319.956V304.834C98.029 298.177 93.6612 295.062 84.1309 295.062C74.1011 295.062 69.2527 298.814 69.424 305.952L77.66 306.85C77.5173 299.988 79.3967 297.34 84.05 297.34C88.0277 297.34 89.9024 299.08 89.9024 303.522V307.668L81.7805 309.152C73.6253 310.636 68.696 312.733 68.696 318.392V318.587C68.696 323.095 71.9695 325.758 77.798 325.758V325.791ZM81.5568 321.815C78.5022 321.815 76.9321 320.218 76.9321 317.612V317.36C76.9321 313.579 79.5109 312.01 84.7209 311.002L89.9024 309.965V313.018C89.9024 318.287 86.1483 321.815 81.5568 321.815ZM118.455 325.82C128.851 325.82 133.533 322.709 133.533 316.941V316.856C133.533 312.88 130.869 310.697 125.292 310.051V309.547C130.307 308.819 132.663 306.831 132.663 303.108V303.032C132.663 298.02 128.29 295.052 118.389 295.052C108.325 295.052 103.425 298.971 102.835 305.99L110.738 306.917L110.766 305.571C111.047 300.141 113.483 297.392 118.274 297.392C122.59 297.392 124.721 299.356 124.721 303.498V303.778C124.721 307.221 123.294 308.762 118.893 308.791L114.182 308.819V311.03L119.145 311.059C123.741 311.087 125.364 312.88 125.364 316.632V316.913C125.364 321.392 122.956 323.494 118.389 323.494C113.454 323.494 110.904 320.836 110.623 315.624V314.335L102.582 315.234C103.339 322.096 108.497 325.848 118.469 325.848L118.455 325.82ZM146.17 325.12V311.087H151.38C154.183 311.087 155.358 311.958 156.452 315.429L157.542 318.9C158.636 322.4 159.141 323.803 160.064 325.12H169.285L169.37 324.417C167.995 323.689 166.677 322.148 165.445 318.563L164.241 314.954C163.009 311.368 161.325 310.36 157.238 309.827V309.323C160.877 308.791 162.11 307.811 163.456 304.758L164.803 301.734C166.145 298.681 167.548 297.088 168.895 296.412L168.838 295.713H159.797C158.87 296.916 158.308 298.148 157.161 301.344L156.015 304.535C154.863 307.725 153.912 308.453 151.361 308.453H146.17V295.713H138.015V325.12H146.17ZM180.576 325.12L192.737 304.368C193.465 303.161 194.129 301.917 194.726 300.64L195.316 300.754C195.031 303.151 194.896 305.564 194.911 307.977V325.12H203V295.713H194.84L182.707 316.466C181.894 317.835 181.332 318.872 180.69 320.189L180.128 320.075C180.404 317.677 180.543 315.265 180.547 312.852V295.732H172.397V325.139L180.576 325.12Z" fill="#0F0F0F"/>
<path d="M62.4753 274.997V248.377H72.8072V245.669H44V248.377H54.3033V274.997H62.4753ZM101.982 264.521C101.223 269.354 97.5189 271.559 92.0406 271.559C85.0796 271.559 81.7087 267.765 81.6277 260.499H105.267C105.352 259.522 105.41 258.711 105.41 257.763C105.41 249.776 99.7359 245 89.6758 245C79.2581 245 73.4652 250.193 73.4652 259.465V261.144C73.4652 270.629 79.1866 275.666 89.8045 275.666C98.9588 275.666 104.661 272.01 105.615 264.914L102.02 264.521H101.982ZM89.6853 247.348C94.5676 247.348 97.1517 250.53 97.1517 256.928V257.985H81.6277V257.905C81.6277 250.867 84.4026 247.348 89.6853 247.348ZM117.987 275.666C124.023 275.666 128.71 272.764 130.565 267.457L131.127 267.594C130.312 273.285 131.69 275.657 136.52 275.657C138.565 275.657 140.11 274.988 141.235 273.508L141.488 271.383C139.242 272.138 138.26 271.915 138.26 269.847V254.765C138.26 248.125 133.878 245.019 124.333 245.019C114.278 245.019 109.424 248.761 109.591 255.884L117.844 256.776C117.706 249.932 119.589 247.291 124.247 247.291C128.233 247.291 130.117 249.022 130.117 253.456V257.592L121.973 259.072C113.801 260.551 108.862 262.647 108.862 268.287V268.481C108.862 272.982 112.147 275.633 117.987 275.633V275.666ZM121.749 271.701C118.688 271.701 117.115 270.108 117.115 267.509V267.267C117.115 263.473 119.699 261.936 124.92 260.931L130.117 259.897V262.942C130.117 268.192 126.355 271.711 121.749 271.711V271.701ZM158.838 274.997V248.377H169.17V245.669H140.363V248.377H150.68V274.997H158.838ZM192.055 245.119C186.186 245.119 182.043 247.964 180.489 254.087L179.926 253.945C180.655 249.98 180.994 247.438 181.023 245.65H172.765V284.753H180.937V276.814C180.917 273.435 180.569 270.067 179.897 266.755L180.46 266.589C182.033 272.707 186.181 275.529 192.055 275.529C200.561 275.529 205 270.473 205 260.722V259.996C205 250.25 200.561 245.138 192.055 245.138V245.119ZM189.052 248.666C194.191 248.666 196.771 252.019 196.771 259.029V261.685C196.771 268.694 194.191 272.043 189.052 272.043C183.807 272.043 180.946 268.049 180.946 261.32V259.394C180.946 252.636 183.807 248.666 189.052 248.666Z" fill="#0F0F0F"/>
<defs>
<clipPath id="clip0_159_4716">
<rect width="209" height="346" fill="white" transform="translate(16)"/>
</clipPath>
</defs>
</svg>
