<svg width="186" height="20" viewBox="0 0 186 20" fill="none" xmlns="http://www.w3.org/2000/svg">
<path d="M8.98648 14.9999V1.98455H14.0124V0.659791H0V1.98455H5.01222V14.9999H8.98648Z" fill="#1D1D1B"/>
<path d="M28.1886 9.87845C27.8199 12.2412 26.0171 13.3201 23.3539 13.3201C19.9669 13.3201 18.3281 11.4627 18.2871 7.9118H29.7865C29.8275 7.4338 29.8548 7.03774 29.8548 6.57339C29.8548 2.66741 27.096 0.332017 22.1931 0.332017C17.1262 0.332017 14.2992 2.87227 14.2992 7.40648V8.22592C14.2992 12.8694 17.0852 15.3277 22.2477 15.3277C26.7 15.3277 29.4724 13.5386 29.9367 10.0696L28.1886 9.87845ZM22.2067 1.47923C24.5831 1.47923 25.8396 3.03616 25.8396 6.16367V6.68265H18.2871V6.64168C18.2871 3.20004 19.6392 1.47923 22.2067 1.47923Z" fill="#1D1D1B"/>
<path d="M35.9732 15.3277C38.9096 15.3277 41.1903 13.9073 42.0917 11.3125L42.3648 11.3807C41.9688 14.1532 42.638 15.3277 44.987 15.3277C45.984 15.3277 46.7352 14.9999 47.2815 14.2761L47.4044 13.2381C46.3118 13.6069 45.8338 13.4976 45.8338 12.487V5.11206C45.8338 1.86163 43.7033 0.345674 39.0598 0.345674C34.1705 0.345674 31.8078 2.17575 31.8897 5.65835L35.905 6.09538C35.8367 2.74935 36.7517 1.46557 39.0188 1.46557C40.9581 1.46557 41.8732 2.31232 41.8732 4.48383V6.5051L37.9126 7.22894C33.9383 7.95277 31.5346 8.97707 31.5346 11.7358V11.8314C31.5346 14.0303 33.1325 15.3277 35.9732 15.3277ZM37.8033 13.3884C36.3147 13.3884 35.5499 12.6099 35.5499 11.3398V11.2169C35.5499 9.37313 36.8063 8.60832 39.3466 8.11666L41.8732 7.61134V9.09998C41.8732 11.6676 40.0431 13.3884 37.8033 13.3884Z" fill="#1D1D1B"/>
<path d="M55.8309 14.9999V1.98455H60.8568V0.659791H46.8444V1.98455H51.8567V14.9999H55.8309Z" fill="#1D1D1B"/>
<path d="M71.9875 0.400303C69.1331 0.400303 67.1255 1.77969 66.3607 4.78429L66.0875 4.716C66.4426 2.77667 66.6065 1.53386 66.6202 0.659791H62.6049V19.78H66.5792V15.8876C66.5792 14.3307 66.4426 13.0196 66.0739 10.971L66.347 10.8891C67.1118 13.88 69.1331 15.2594 71.9875 15.2594C76.1256 15.2594 78.2835 12.7874 78.2835 8.02106V7.66597C78.2835 2.89958 76.1256 0.400303 71.9875 0.400303ZM70.5261 2.13478C73.0254 2.13478 74.2819 3.77365 74.2819 7.20162V8.49906C74.2819 11.927 73.0254 13.5659 70.5261 13.5659C67.9722 13.5659 66.5792 11.6129 66.5792 8.32152V7.37917C66.5792 4.07411 67.9722 2.13478 70.5261 2.13478Z" fill="#1D1D1B"/>
<path d="M93.9347 15.3414C98.4689 15.3414 101.091 13.3337 101.528 9.57799L99.7527 9.35947C99.3293 11.9817 97.6905 13.2791 94.8907 13.2791C91.6266 13.2791 90.1243 11.2169 90.1243 7.25625V6.86019C90.1243 3.13176 91.3944 1.49288 93.8528 1.49288C96.1062 1.49288 97.2807 2.8313 97.4446 6.01344V6.68265L101.405 6.15001C101.105 2.36695 98.6055 0.318359 93.8801 0.318359C88.8269 0.318359 86.1091 2.87227 86.1091 7.65231V7.87083C86.1091 12.7465 88.8132 15.3414 93.9347 15.3414Z" fill="#1D1D1B"/>
<path d="M107.77 14.9999V8.15763H110.31C111.675 8.15763 112.249 8.58101 112.782 10.2745L113.314 11.968C113.847 13.6752 114.093 14.358 114.544 14.9999H119.037L119.078 14.6585C118.409 14.3034 117.767 13.5523 117.166 11.8041L116.578 10.0423C115.978 8.29421 115.158 7.80254 113.164 7.54305V7.29722C114.94 7.03774 115.54 6.55973 116.196 5.07109L116.852 3.5961C117.507 2.10746 118.19 1.329 118.846 1.00122L118.818 0.659791H114.407C113.956 1.24705 113.683 1.84797 113.123 3.4049L112.563 4.96183C112.003 6.51876 111.539 6.87385 110.296 6.87385H107.77V0.659791H103.795V14.9999H107.77Z" fill="#1D1D1B"/>
<path d="M124.035 15.3277C126.972 15.3277 129.252 13.9073 130.154 11.3125L130.427 11.3807C130.031 14.1532 130.7 15.3277 133.049 15.3277C134.046 15.3277 134.797 14.9999 135.344 14.2761L135.466 13.2381C134.374 13.6069 133.896 13.4976 133.896 12.487V5.11206C133.896 1.86163 131.765 0.345674 127.122 0.345674C122.233 0.345674 119.87 2.17575 119.952 5.65835L123.967 6.09538C123.899 2.74935 124.814 1.46557 127.081 1.46557C129.02 1.46557 129.935 2.31232 129.935 4.48383V6.5051L125.975 7.22894C122 7.95277 119.597 8.97707 119.597 11.7358V11.8314C119.597 14.0303 121.195 15.3277 124.035 15.3277ZM125.865 13.3884C124.377 13.3884 123.612 12.6099 123.612 11.3398V11.2169C123.612 9.37313 124.868 8.60832 127.409 8.11666L129.935 7.61134V9.09998C129.935 11.6676 128.105 13.3884 125.865 13.3884Z" fill="#1D1D1B"/>
<path d="M143.838 15.3414C148.905 15.3414 151.186 13.8254 151.186 11.012V10.971C151.186 9.0317 149.889 7.96643 147.171 7.65231V7.40648C149.615 7.05139 150.763 6.08173 150.763 4.26531V4.22434C150.763 1.77969 148.632 0.332017 143.797 0.332017C138.894 0.332017 136.504 2.24403 136.218 5.65835L140.069 6.10904L140.083 5.45349C140.219 2.80398 141.407 1.46557 143.743 1.46557C145.846 1.46557 146.884 2.42158 146.884 4.44285V4.57943C146.884 6.25927 146.187 7.01042 144.043 7.02408L141.749 7.03773V8.11666L144.166 8.13032C146.406 8.14397 147.198 9.01804 147.198 10.8481V10.9847C147.198 13.1698 146.024 14.1941 143.797 14.1941C141.394 14.1941 140.151 12.8967 140.014 10.3565V9.72822L136.095 10.1653C136.463 13.5113 138.976 15.3414 143.838 15.3414Z" fill="#1D1D1B"/>
<path d="M157.345 14.9999V8.15763H159.886C161.251 8.15763 161.825 8.58101 162.358 10.2745L162.89 11.968C163.423 13.6752 163.669 14.358 164.119 14.9999H168.613L168.654 14.6585C167.984 14.3034 167.343 13.5523 166.742 11.8041L166.154 10.0423C165.553 8.29421 164.734 7.80254 162.74 7.54305V7.29722C164.515 7.03774 165.116 6.55973 165.772 5.07109L166.427 3.5961C167.083 2.10746 167.766 1.329 168.421 1.00122L168.394 0.659791H163.983C163.532 1.24705 163.259 1.84797 162.699 3.4049L162.139 4.96183C161.579 6.51876 161.115 6.87385 159.872 6.87385H157.345V0.659791H153.371V14.9999H157.345Z" fill="#1D1D1B"/>
<path d="M174.13 14.9999L180.057 4.87989C180.453 4.21068 180.727 3.70536 181.027 3.06347L181.314 3.1181C181.164 4.37457 181.109 5.45349 181.109 6.64168V14.9999H185.07V0.659791H181.082L175.168 10.7798C174.772 11.449 174.499 11.9544 174.185 12.5962L173.912 12.5416C174.048 11.2851 174.117 10.2062 174.117 9.01804V0.659791H170.142V14.9999H174.13Z" fill="#1D1D1B"/>
</svg>
