<svg width="417" height="370" viewBox="0 0 417 370" fill="none" xmlns="http://www.w3.org/2000/svg">
<path d="M59.4863 119.502C59.4863 120.852 59.8866 122.171 60.6365 123.294C61.3864 124.416 62.4522 125.291 63.6992 125.807C64.9462 126.324 66.3184 126.459 67.6422 126.196C68.966 125.932 70.1821 125.282 71.1365 124.328C72.0909 123.373 72.7409 122.157 73.0042 120.834C73.2675 119.51 73.1324 118.138 72.6158 116.891C72.0993 115.644 71.2246 114.578 70.1023 113.828C68.98 113.078 67.6606 112.678 66.3108 112.678C64.5009 112.678 62.765 113.397 61.4852 114.677C60.2054 115.956 59.4863 117.692 59.4863 119.502Z" fill="#1C1C1C"/>
<path d="M70.4574 126.644C82.3023 124.272 86.1267 117.556 86.1267 117.556C86.1267 117.556 81.1401 109.901 68.0384 111.38C52.0246 113.191 50.2812 122.752 50.2812 122.752C56.2252 126.672 63.482 128.072 70.4574 126.644Z" fill="white"/>
<path d="M70.4574 126.644C82.3023 124.272 86.1267 117.556 86.1267 117.556C86.1267 117.556 81.1401 109.901 68.0384 111.38C52.0246 113.191 50.2812 122.752 50.2812 122.752C56.2252 126.672 63.482 128.072 70.4574 126.644Z" fill="white"/>
<path d="M59.4863 119.502C59.4863 120.852 59.8866 122.171 60.6365 123.294C61.3864 124.416 62.4522 125.291 63.6992 125.807C64.9462 126.324 66.3184 126.459 67.6422 126.196C68.966 125.932 70.1821 125.282 71.1365 124.328C72.0909 123.373 72.7409 122.157 73.0042 120.834C73.2675 119.51 73.1324 118.138 72.6158 116.891C72.0993 115.644 71.2246 114.578 70.1023 113.828C68.98 113.078 67.6606 112.678 66.3108 112.678C64.5009 112.678 62.765 113.397 61.4852 114.677C60.2054 115.956 59.4863 117.692 59.4863 119.502Z" fill="#0F0F0F"/>
<path d="M70.4386 126.625C66.9847 127.333 63.4252 127.354 59.9633 126.686C56.5014 126.018 53.205 124.675 50.2624 122.733C50.2624 122.733 52.0057 113.172 68.0196 111.367C81.128 109.888 86.1146 117.543 86.1146 117.543C86.1146 117.543 82.2902 124.26 70.4386 126.625ZM366.682 202.093C327.641 180.274 315.85 172.599 281.937 193.45C278.558 195.532 275.443 197.369 272.585 199.011L271.274 198.924C272.403 188.363 271.308 175.727 260.761 172.045C238.463 164.261 207.624 204.12 195.367 197.991C188.921 194.768 219.787 177.045 191.705 169.186C172.833 163.923 139.325 188.957 122.974 202.518C116.534 202.971 112.507 203.376 111.94 203.674C111.94 203.674 209.077 142.591 155.934 93.2049C147.643 85.502 140.501 84.9885 131.758 81.387C167.475 83.279 203.975 77.9005 196.502 35.5346C196.502 35.5346 134.656 48.3187 115.906 78.9478C113.319 77.9346 110.678 77.0683 107.993 76.3531C132.055 55.5418 146.474 38.7712 131.393 0C131.393 0 97.6081 39.8658 93.1148 74.0017C74.8711 73.2179 62.6479 80.1708 62.6479 80.1708C62.6479 80.1708 67.7696 85.779 69.0129 89.1507C60.2694 95.286 13.8629 128.084 2.6667 148.531C-9.57007 170.828 21.586 204.167 69.9183 170.234L96.1418 151.814C87.02 177.666 58.5666 202.924 33.6404 225.694C-37.3478 290.547 41.9109 340.549 41.9109 340.549C41.9109 340.549 34.6336 301.825 38.7486 290.878C44.6812 275.088 51.5868 270.864 61.087 270.52C57.4653 273.527 54.2557 278.581 52.2624 286.736C44.215 319.676 57.0801 369.502 57.0801 369.502L86.8105 369.563C86.8105 369.563 91.8242 232.587 215.631 259.195C285.126 274.135 224.861 369.515 224.861 369.515C241.706 369.265 238.882 369.414 263.848 369.569L266.788 367.941C276.45 362.535 316.113 328.967 307.39 258.074C303.701 227.931 288.403 215.052 282.389 207.829C282.295 206.863 282.234 206.018 282.18 205.241C288.322 202.147 296.64 199.538 307.856 198.532C332.857 196.275 339.452 204.485 358.972 233.195C378.493 261.905 416.23 216.039 416.23 216.039C416.23 216.039 405.784 223.917 366.743 202.093" fill="#F69F14"/>
<path d="M58.3683 208.133L57.598 190.64L50.6519 208.904L42.1652 196.815L47.564 213.025L30.0703 217.661L46.2801 220.485L38.0435 237.979L53.2263 225.12L57.3412 247.506L61.7197 225.634L77.666 232.066L65.5779 218.431L80.2404 208.647L63.517 210.451L69.6929 195.788L58.3683 208.133Z" fill="#0F0F0F"/>
</svg>
