<svg width="12" height="18" viewBox="0 0 12 18" fill="none" xmlns="http://www.w3.org/2000/svg">
<path d="M5.17398 12.4297C3.87161 12.2938 2.69734 11.9731 1.69197 11.1868C1.56722 11.0889 1.43843 10.9946 1.32459 10.8854C0.884546 10.4627 0.840207 9.97871 1.18841 9.4799C1.48629 9.05305 1.98633 8.93886 2.50608 9.18395C2.60672 9.23146 2.70262 9.29075 2.79446 9.35445C4.66813 10.6419 7.24207 10.6774 9.12278 9.41233C9.30911 9.26946 9.50828 9.15299 9.73912 9.09352C10.188 8.97827 10.6065 9.14313 10.8474 9.53585C11.1226 9.98434 11.1191 10.4221 10.78 10.7703C10.2599 11.3041 9.63443 11.6903 8.93944 11.9599C8.28227 12.2147 7.56247 12.3429 6.85006 12.4281C6.95756 12.5451 7.00824 12.6026 7.07545 12.6702C8.04281 13.6421 9.01439 14.61 9.97859 15.5849C10.3071 15.9171 10.3757 16.329 10.1948 16.7154C9.99706 17.1377 9.55438 17.4155 9.12031 17.3858C8.84531 17.3668 8.63083 17.2299 8.44027 17.0379C7.71027 16.3033 6.96654 15.5823 6.25131 14.8338C6.04316 14.6162 5.94305 14.6573 5.75936 14.8463C5.02495 15.6024 4.27858 16.3468 3.52781 17.087C3.1907 17.4194 2.78953 17.4792 2.39858 17.2893C1.98299 17.0879 1.71854 16.6637 1.73895 16.2374C1.75302 15.949 1.89484 15.7287 2.09278 15.5311C3.05011 14.5752 4.00481 13.6168 4.95985 12.6593C5.02302 12.5956 5.08196 12.528 5.17398 12.4297Z" fill="white"/>
<path d="M5.96703 9.10106C3.64364 9.09314 1.73848 7.16704 1.75202 4.83995C1.7654 2.48718 3.67179 0.591163 6.01806 0.597673C8.36907 0.604007 10.2561 2.52729 10.2443 4.90452C10.2324 7.22686 8.314 9.10915 5.96703 9.10106ZM8.07858 4.84558C8.07453 3.69013 7.15433 2.77028 6.00117 2.76922C4.83833 2.76799 3.90985 3.70456 3.91882 4.87057C3.92744 6.02162 4.85557 6.93496 6.0119 6.93074C7.16471 6.92669 8.08245 6.00085 8.07858 4.84558Z" fill="white"/>
</svg>
