<svg width="130" height="40" viewBox="0 0 130 40" fill="none" xmlns="http://www.w3.org/2000/svg">
<g transform="translate(-46,-112)">
<path fill-rule="evenodd" clip-rule="evenodd" d="M24 0C10.7452 0 0 10.7452 0 24V88C0 101.255 10.7452 112 24 112H51.4264C53.2922 114.365 51.4276 120.613 49.4083 127.38C47.3692 134.214 45.1724 141.575 46.4999 146C48.4319 152.44 52.7617 149.052 56.9852 145.746C58.0082 144.946 59.025 144.15 60 143.5C66.5 139.167 76.2999 133.8 97.4999 125C114.445 117.966 146.788 113.871 169.301 112H570C583.255 112 594 101.255 594 88V24C594 10.7452 583.255 0 570 0H24Z" fill="white"/>
</g>
</svg>
