<svg width="50" height="28" viewBox="0 0 50 28" fill="none" xmlns="http://www.w3.org/2000/svg">
<path d="M20.5554 22.5501C18.8801 21.5796 17.5291 20.1321 16.6732 18.3907C15.8172 16.6494 15.4948 14.6923 15.7467 12.7669C15.9985 10.8416 16.8133 9.03442 18.0881 7.57399C19.3629 6.11357 21.0403 5.06544 22.9084 4.56215C24.7764 4.05885 26.7512 4.12299 28.5829 4.74644C30.4147 5.3699 32.0212 6.52468 33.1993 8.06477C34.3774 9.60486 35.0742 11.4611 35.2015 13.3988C35.3289 15.3364 34.8812 17.2685 33.915 18.9507C33.2733 20.0679 32.4187 21.0472 31.3999 21.8327C30.3812 22.6182 29.2184 23.1946 27.9778 23.5288C26.7372 23.863 25.4432 23.9487 24.1696 23.7807C22.8961 23.6128 21.6679 23.1946 20.5554 22.5501ZM31.3002 3.9227C9.34733 -5.68426 0 5.37744 0 5.37744C0 5.37744 6.07113 19.6716 23.0801 25.4466C40.089 31.2217 50 25.395 50 25.395C50 25.395 49.2639 11.7855 31.3002 3.9227Z" fill="#F59E14"/>
</svg>
