<svg width="20" height="12" viewBox="0 0 20 12" fill="none" xmlns="http://www.w3.org/2000/svg">
<path d="M10 0.400391C3.439 0.400391 0 5.23239 0 6.00039C0 6.76639 3.439 11.6004 10 11.6004C16.56 11.6004 20 6.76639 20 6.00039C20 5.23239 16.56 0.400391 10 0.400391ZM10 10.3074C7.545 10.3074 5.555 8.37939 5.555 6.00039C5.555 3.62139 7.545 1.69139 10 1.69139C12.455 1.69139 14.444 3.62139 14.444 6.00039C14.444 8.37939 12.455 10.3074 10 10.3074ZM10 6.00039C9.593 5.55339 10.663 3.84639 10 3.84639C8.772 3.84639 7.777 4.81139 7.777 6.00039C7.777 7.18939 8.772 8.15439 10 8.15439C11.227 8.15439 12.223 7.18939 12.223 6.00039C12.223 5.45339 10.346 6.37939 10 6.00039Z" fill="#0F0F0F"/>
</svg>
