<svg width="20" height="20" viewBox="0 0 20 20" fill="none" xmlns="http://www.w3.org/2000/svg">
<path d="M11.5438 8.45645C10.7247 7.63768 9.61396 7.17773 8.45581 7.17773C7.29766 7.17773 6.18692 7.63768 5.36781 8.45645L2.27881 11.5444C1.45969 12.3636 0.999512 13.4745 0.999512 14.6329C0.999512 15.7914 1.45969 16.9023 2.27881 17.7215C3.09793 18.5406 4.2089 19.0007 5.36731 19.0007C6.52572 19.0007 7.63669 18.5406 8.45581 17.7215L9.99981 16.1775" stroke="black" stroke-width="2" stroke-linecap="round" stroke-linejoin="round"/>
<path d="M8.45605 11.5443C9.27516 12.3631 10.3859 12.823 11.5441 12.823C12.7022 12.823 13.8129 12.3631 14.6321 11.5443L17.7211 8.4563C18.5402 7.63718 19.0004 6.52621 19.0004 5.3678C19.0004 4.20939 18.5402 3.09842 17.7211 2.2793C16.9019 1.46018 15.791 1 14.6326 1C13.4741 1 12.3632 1.46018 11.5441 2.2793L10.0001 3.8233" stroke="black" stroke-width="2" stroke-linecap="round" stroke-linejoin="round"/>
</svg>
