<svg width="30" height="38" viewBox="0 0 30 38" fill="none" xmlns="http://www.w3.org/2000/svg">
<path fill-rule="evenodd" clip-rule="evenodd" d="M0 6C0 2.68629 2.68629 0 6 0H24C27.3137 0 30 2.68629 30 6V27.4537C29.3533 28.2016 28.4545 29.071 27.407 29.7873C25.9772 30.7651 24.3382 31.4124 22.7161 31.1721L21.7826 31.0338L22.1925 31.8838C22.5824 32.6925 22.9246 34.1813 22.9143 35.5964C22.9092 36.2998 22.8169 36.9535 22.6205 37.4792C22.547 37.6758 22.461 37.8496 22.3627 38H6C2.68629 38 0 35.3137 0 32V6ZM23.4891 38H24C27.3137 38 30 35.3137 30 32V28.9193C29.4196 29.4985 28.7331 30.092 27.9715 30.6127C26.659 31.5103 25.0735 32.2252 23.3982 32.2226C23.7095 33.1754 23.9229 34.4202 23.9143 35.6036C23.9087 36.378 23.8081 37.1576 23.5572 37.8292C23.5357 37.8867 23.513 37.9437 23.4891 38ZM23.3574 23V17.3984H25.209V16.8477H23.3105C23.0293 15.6465 23.2637 15.3711 25.2441 15.248L25.1621 14.7031C22.4141 14.8262 21.6523 15.2715 21.6523 16.5137V16.8477H20.6504V17.3984H21.6523V23H23.3574ZM18.2422 21.2305C17.9141 22.5195 17.0527 23.1113 15.8281 23.1113C14.0527 23.1113 13.127 22.0391 13.127 19.9941V19.8418C13.127 17.7969 14.0527 16.7363 15.8281 16.7363C17.0527 16.7363 17.9199 17.3281 18.248 18.6113L18.3652 18.5762C18.207 17.6973 18.1484 17.1348 18.1484 16.4668V14.7969H19.8535V23H18.1309C18.1367 22.625 18.207 22.0918 18.3652 21.2598L18.2422 21.2305ZM14.8496 20.1934C14.8496 21.6641 15.3828 22.3672 16.4551 22.3672C17.5566 22.3672 18.1484 21.5352 18.1484 20.1172V19.7129C18.1484 18.3008 17.5566 17.4629 16.4551 17.4629C15.3828 17.4629 14.8496 18.166 14.8496 19.6367V20.1934ZM7.19727 18.6172C7.52539 17.3281 8.38672 16.7363 9.61133 16.7363C11.3867 16.7363 12.3125 17.8086 12.3125 19.8535V20.0059C12.3125 22.0508 11.3867 23.1113 9.61133 23.1113C8.38672 23.1113 7.51953 22.5195 7.19141 21.2363L7.07422 21.2715C7.23242 22.1504 7.29102 22.7129 7.29102 23.3809V25.0508H5.58594V16.8477H7.30859C7.30273 17.2227 7.23242 17.7559 7.08008 18.5879L7.19727 18.6172ZM10.5957 19.6543C10.5957 18.1836 10.0566 17.4805 8.98438 17.4805C7.88867 17.4805 7.29102 18.3125 7.29102 19.7305V20.1348C7.29102 21.5469 7.88867 22.3848 8.98438 22.3848C10.0566 22.3848 10.5957 21.6816 10.5957 20.2109V19.6543Z" fill="#F59E14"/>
</svg>
