<svg width="48" height="41" viewBox="0 0 48 41" fill="none" xmlns="http://www.w3.org/2000/svg">
<path d="M10.2934 17.7354C18.1281 19.8347 22.6138 18.291 24.032 12.9983L24.1908 12.4055C25.609 7.11276 22.4961 3.53305 14.6614 1.43374C6.82665 -0.665572 2.34094 0.878094 0.922755 6.17084L0.763918 6.76363C-0.654269 12.0564 2.45864 15.6361 10.2934 17.7354ZM11.6366 33.0713L40.6785 9.08574L36.4284 7.94693L7.38649 31.9325L11.6366 33.0713ZM10.9514 15.2796C9.49179 14.8885 8.99901 13.8942 9.61733 11.5865L10.9958 6.44197C11.6198 4.11316 12.5437 3.49847 14.0033 3.88957C15.463 4.28068 15.9557 5.27497 15.3317 7.60378L13.9533 12.7483C13.3349 15.056 12.411 15.6707 10.9514 15.2796ZM33.3392 39.5673C41.174 41.6666 45.6597 40.1229 47.0779 34.8302L47.2367 34.2374C48.6549 28.9447 45.542 25.3649 37.7073 23.2656C29.8725 21.1663 25.3868 22.71 23.9686 28.0027L23.8098 28.5955C22.3916 33.8883 25.5045 37.468 33.3392 39.5673ZM33.9973 37.1115C32.5377 36.7204 32.0449 35.7261 32.6632 33.4184L34.0417 28.2739C34.6657 25.9451 35.5896 25.3304 37.0492 25.7215C38.5088 26.1126 39.0016 27.1069 38.3776 29.4357L36.9991 34.5802C36.3808 36.8879 35.4569 37.5026 33.9973 37.1115Z" fill="#F59E14"/>
</svg>
