<svg width="15" height="12" viewBox="0 0 15 12" fill="none" xmlns="http://www.w3.org/2000/svg">
<path d="M10.9757 0H0V12H3.05489V8.09593H8.90857L11.5794 12H15L12.0549 8.07798C12.9696 7.93409 13.6281 7.59226 14.0306 7.05248C14.4329 6.51281 14.6342 5.64914 14.6342 4.49769V3.59821C14.6342 2.91455 14.5611 2.37484 14.4329 1.96101C14.305 1.54723 14.0855 1.18741 13.7744 0.863571C13.4452 0.557714 13.0793 0.341835 12.6404 0.197901C12.2013 0.0719559 11.6525 0 10.9757 0ZM10.4817 5.4513H3.05489V2.64467H10.4817C10.9025 2.64467 11.1951 2.71665 11.3415 2.84257C11.4878 2.9685 11.5794 3.20239 11.5794 3.54426V4.55174C11.5794 4.91152 11.4878 5.14547 11.3415 5.27141C11.1951 5.39736 10.9025 5.4513 10.4817 5.4513Z" fill="#0F0F0F"/>
</svg>
