<svg width="24" height="24" viewBox="0 0 24 24" fill="none" xmlns="http://www.w3.org/2000/svg">
<path d="M1.65696 0.921992C1.52212 0.854555 1.37107 0.826313 1.22098 0.840478C1.07089 0.854642 0.927792 0.910646 0.807957 1.00212C0.688121 1.09359 0.596363 1.21685 0.543118 1.3579C0.489874 1.49894 0.477282 1.65209 0.506774 1.79993L2.76687 9.6128C2.80901 9.7584 2.89138 9.88915 3.00451 9.99003C3.11764 10.0909 3.25694 10.1578 3.4064 10.1831L12.5724 11.7183C13.0041 11.8036 13.0041 12.4222 12.5724 12.5076L3.4064 14.0428C3.25694 14.068 3.11764 14.1349 3.00451 14.2358C2.89138 14.3367 2.80901 14.4674 2.76687 14.613L0.506774 22.4259C0.477282 22.5738 0.489874 22.7269 0.543118 22.8679C0.596363 23.009 0.688121 23.1323 0.807957 23.2237C0.927792 23.3152 1.07089 23.3712 1.22098 23.3854C1.37107 23.3995 1.52212 23.3713 1.65696 23.3039L22.5987 12.833C22.7323 12.766 22.8446 12.6632 22.9231 12.536C23.0016 12.4089 23.0432 12.2624 23.0432 12.1129C23.0432 11.9635 23.0016 11.817 22.9231 11.6898C22.8446 11.5626 22.7323 11.4598 22.5987 11.3928L1.65696 0.921992Z" fill="black"/>
</svg>
