<svg width="50" height="49" viewBox="0 0 50 49" fill="none" xmlns="http://www.w3.org/2000/svg">
<path d="M48.7837 16.9232L44.3018 12.4413C43.9401 12.0846 43.458 11.8762 42.9504 11.8574C42.4428 11.8386 41.9466 12.0107 41.5596 12.3397C40.9621 12.8483 40.1954 13.1138 39.4113 13.0837C38.6273 13.0536 37.8832 12.7301 37.3264 12.1772C36.7739 11.6205 36.4505 10.8766 36.4204 10.0928C36.3903 9.30904 36.6557 8.54253 37.1639 7.94511C37.4929 7.55811 37.665 7.06188 37.6462 6.55428C37.6274 6.04667 37.4191 5.56453 37.0624 5.20292L32.5764 0.715893C32.1973 0.337511 31.6835 0.125 31.1479 0.125C30.6123 0.125 30.0985 0.337511 29.7194 0.715893L22.5745 7.8598C22.1334 8.3025 21.8007 8.8413 21.6025 9.43402C21.5639 9.54797 21.4996 9.65151 21.4145 9.73658C21.3295 9.82165 21.2259 9.88598 21.112 9.92456C20.519 10.1227 19.9802 10.4558 19.5378 10.8975L1.21589 29.2194C0.837511 29.5985 0.625 30.1123 0.625 30.6479C0.625 31.1835 0.837511 31.6973 1.21589 32.0764L5.70292 36.5583C6.06453 36.915 6.54667 37.1233 7.05428 37.1421C7.56188 37.1609 8.05811 36.9889 8.44511 36.6599C9.04117 36.1472 9.80894 35.8787 10.5946 35.9082C11.3802 35.9377 12.1257 36.263 12.6817 36.819C13.2376 37.3749 13.5629 38.1204 13.5924 38.906C13.6219 39.6917 13.3534 40.4594 12.8407 41.0555C12.5117 41.4425 12.3397 41.9387 12.3585 42.4463C12.3773 42.9539 12.5856 43.4361 12.9423 43.7977L17.4243 48.2796C17.8034 48.658 18.3171 48.8705 18.8527 48.8705C19.3884 48.8705 19.9021 48.658 20.2812 48.2796L38.6031 29.9578C39.0446 29.5156 39.3776 28.9771 39.576 28.3846C39.6145 28.2702 39.6788 28.1664 39.7641 28.0811C39.8494 27.9958 39.9533 27.9314 40.0676 27.893C40.66 27.6948 41.1985 27.3621 41.6408 26.921L48.7847 19.7761C49.1617 19.3971 49.3733 18.8841 49.3731 18.3495C49.3729 17.8148 49.161 17.302 48.7837 16.9232ZM25.5899 13.9119C25.439 14.0628 25.2598 14.1826 25.0626 14.2643C24.8655 14.3459 24.6541 14.388 24.4407 14.388C24.2273 14.388 24.0159 14.3459 23.8188 14.2643C23.6216 14.1826 23.4424 14.0628 23.2915 13.9119L22.1225 12.7429C21.8252 12.4366 21.6603 12.0257 21.6635 11.5988C21.6668 11.172 21.8378 10.7635 22.1397 10.4617C22.4416 10.16 22.8501 9.98911 23.277 9.98609C23.7038 9.98306 24.1147 10.1481 24.4209 10.4456L25.5899 11.6135C25.7408 11.7644 25.8605 11.9436 25.9422 12.1408C26.0239 12.338 26.066 12.5493 26.066 12.7627C26.066 12.9762 26.0239 13.1875 25.9422 13.3847C25.8605 13.5819 25.7408 13.761 25.5899 13.9119ZM30.0586 18.3807C29.7539 18.6852 29.3407 18.8562 28.91 18.8562C28.4792 18.8562 28.066 18.6852 27.7613 18.3807L26.6441 17.2635C26.4932 17.1126 26.3735 16.9334 26.2918 16.7362C26.2101 16.539 26.1681 16.3277 26.1681 16.1143C26.1681 15.9009 26.2101 15.6895 26.2918 15.4924C26.3735 15.2952 26.4932 15.116 26.6441 14.9651C26.9489 14.6603 27.3622 14.4891 27.7933 14.4891C28.0067 14.4891 28.218 14.5311 28.4152 14.6128C28.6124 14.6945 28.7915 14.8142 28.9425 14.9651L30.0596 16.0823C30.2111 16.2332 30.3313 16.4125 30.4133 16.6099C30.4954 16.8073 30.5377 17.019 30.5378 17.2328C30.5379 17.4466 30.4958 17.6583 30.4139 17.8558C30.332 18.0533 30.212 18.2327 30.0607 18.3837L30.0586 18.3807ZM34.5274 22.8494C34.3765 23.0003 34.1973 23.1201 34.0001 23.2018C33.803 23.2834 33.5916 23.3255 33.3782 23.3255C33.1648 23.3255 32.9534 23.2834 32.7562 23.2018C32.5591 23.1201 32.3799 23.0003 32.229 22.8494L31.1118 21.7322C30.8145 21.4259 30.6496 21.015 30.6528 20.5881C30.6561 20.1613 30.8271 19.7528 31.129 19.451C31.4309 19.1493 31.8394 18.9784 32.2663 18.9754C32.6931 18.9724 33.104 19.1374 33.4102 19.4349L34.5274 20.5521C34.6793 20.7027 34.7999 20.8818 34.8824 21.0792C34.9649 21.2766 35.0076 21.4883 35.008 21.7022C35.0085 21.9161 34.9667 22.128 34.8851 22.3258C34.8035 22.5235 34.6837 22.7032 34.5325 22.8545L34.5274 22.8494ZM39.0398 27.373C38.8889 27.5239 38.7097 27.6437 38.5126 27.7254C38.3154 27.807 38.104 27.8491 37.8906 27.8491C37.6772 27.8491 37.4659 27.807 37.2687 27.7254C37.0715 27.6437 36.8923 27.5239 36.7414 27.373L35.5796 26.205C35.4255 26.0546 35.3028 25.875 35.2187 25.6767C35.1346 25.4784 35.0908 25.2654 35.0898 25.0501C35.0888 24.8347 35.1305 24.6213 35.2127 24.4222C35.2949 24.2231 35.4159 24.0424 35.5685 23.8905C35.7212 23.7385 35.9025 23.6185 36.102 23.5373C36.3014 23.4561 36.5151 23.4153 36.7304 23.4174C36.9458 23.4195 37.1586 23.4643 37.3564 23.5494C37.5543 23.6344 37.7333 23.7579 37.883 23.9128L39.0459 25.0797C39.1968 25.2307 39.3164 25.4099 39.398 25.6071C39.4796 25.8043 39.5216 26.0157 39.5215 26.2291C39.5214 26.4425 39.4792 26.6539 39.3975 26.851C39.3157 27.0481 39.1959 27.2272 39.0449 27.3781L39.0398 27.373Z" fill="#F59E14"/>
</svg>
