<svg width="110" height="75" viewBox="0 0 110 75" fill="none" xmlns="http://www.w3.org/2000/svg">
<path d="M51.9872 52.4702C50.9236 54.5775 47.5786 58.5719 45.2889 55.3174C43.4245 52.6656 47.441 45.716 48.8758 43.2055C50.3414 40.6137 52.0299 38.1535 53.9224 35.8527C54.9318 41.6717 54.4479 47.5947 51.9872 52.4785M93.0152 17.9965C82.7259 12.4269 69.9591 11.313 59.1276 15.8186C58.356 14.6298 57.5635 13.4992 56.7294 12.4684C47.7622 1.10468 32.739 -3.66693 19.43 3.1455C5.7498 10.1533 -1.25713 26.1183 0.18596 40.9693C0.957556 48.9164 13.5325 48.9996 12.7526 40.9693C11.8475 31.6297 14.5919 21.8496 22.4246 16.0305C29.7193 10.598 38.4238 11.6995 44.8343 17.8968C46.3107 19.3419 47.6227 20.9449 48.7465 22.6767C44.4213 26.8041 40.8595 31.9456 38.0275 36.9001C33.9985 43.9661 29.8695 53.8793 34.4407 61.656C39.1286 69.6156 50.8903 70.9914 57.7512 65.2555C68.3283 56.3939 68.7871 40.695 64.512 27.4774C69.5754 25.2205 75.4437 24.7674 82.2087 26.9412C97.2861 31.7877 102.804 52.4952 92.0351 64.1748C86.5714 70.1019 95.4343 78.9801 100.919 73.0322C115.308 57.4289 112.547 28.5955 92.9943 18.0132" fill="white"/>
</svg>
