<svg width="66" height="66" viewBox="0 0 66 66" fill="none" xmlns="http://www.w3.org/2000/svg">
<path d="M33.0028 9.65855C28.3846 9.65855 23.8702 11.028 20.0304 13.5937C16.1905 16.1594 13.1977 19.8061 11.4304 24.0727C9.66316 28.3393 9.20076 33.0342 10.1017 37.5636C11.0027 42.093 13.2265 46.2535 16.492 49.519C19.7575 52.7845 23.9181 55.0083 28.4475 55.9093C32.9769 56.8103 37.6717 56.3479 41.9383 54.5806C46.2049 52.8133 49.8516 49.8205 52.4173 45.9807C54.983 42.1408 56.3525 37.6264 56.3525 33.0083C56.3474 26.8171 53.8857 20.881 49.5079 16.5031C45.13 12.1253 39.1939 9.66364 33.0028 9.65855ZM33.0028 66C26.4757 66.0005 20.0951 64.0655 14.6679 60.4397C9.24067 56.8138 5.01055 51.6599 2.51252 45.6298C0.0144836 39.5998 -0.639258 32.9643 0.633966 26.5627C1.90719 20.1611 5.05019 14.2808 9.66549 9.66549C14.2808 5.0502 20.1611 1.90719 26.5627 0.633966C32.9643 -0.639259 39.5998 0.014486 45.6298 2.51252C51.6599 5.01055 56.8138 9.24067 60.4396 14.6679C64.0655 20.0952 66.0005 26.4758 66 33.0028C65.9898 41.7511 62.5101 50.1381 56.3241 56.3241C50.1381 62.5101 41.751 65.9898 33.0028 66Z" fill="black"/>
</svg>
