<svg width="76" height="43" viewBox="0 0 76 43" fill="none" xmlns="http://www.w3.org/2000/svg">
<path d="M31.0554 33.9749C28.5243 32.5127 26.4832 30.3319 25.1901 27.7083C23.8969 25.0846 23.4098 22.136 23.7903 19.2352C24.1708 16.3343 25.4018 13.6116 27.3278 11.4113C29.2537 9.21096 31.788 7.63181 34.6103 6.87352C37.4326 6.11524 40.4161 6.21186 43.1835 7.15119C45.9509 8.09052 48.378 9.83036 50.1579 12.1507C51.9378 14.4711 52.9905 17.2678 53.183 20.1871C53.3755 23.1065 52.699 26.0175 51.2392 28.5519C50.2697 30.2351 48.9786 31.7106 47.4395 32.8941C45.9004 34.0776 44.1435 34.9459 42.2692 35.4495C40.3949 35.9531 38.4399 36.082 36.5158 35.829C34.5917 35.576 32.7362 34.946 31.0554 33.9749ZM47.2887 5.91011C14.1221 -8.56415 0 8.10188 0 8.10188C0 8.10188 9.17235 29.6381 34.8697 38.339C60.5671 47.0399 75.5407 38.2611 75.5407 38.2611C75.5407 38.2611 74.4286 17.7566 47.2887 5.91011Z" fill="black"/>
</svg>
