<svg width="16" height="16" viewBox="0 0 16 16" fill="none" xmlns="http://www.w3.org/2000/svg">
<path fill-rule="evenodd" clip-rule="evenodd" d="M0.929612 0.928635C0.539088 1.31916 0.539088 1.95232 0.929612 2.34285L6.58661 7.99985L0.929904 13.6566C0.53938 14.0471 0.53938 14.6802 0.929904 15.0708C1.32043 15.4613 1.95359 15.4613 2.34412 15.0708L8.00083 9.41406L13.6575 15.0708C14.0481 15.4613 14.6812 15.4613 15.0717 15.0708C15.4623 14.6802 15.4623 14.0471 15.0717 13.6566L9.41504 7.99985L15.072 2.34285C15.4626 1.95232 15.4626 1.31916 15.072 0.928635C14.6815 0.538111 14.0484 0.538111 13.6578 0.928635L8.00083 6.58564L2.34383 0.928635C1.9533 0.538111 1.32014 0.538111 0.929612 0.928635Z" fill="#0F0F0F"/>
</svg>
