<svg width="52" height="53" viewBox="0 0 52 53" fill="none" xmlns="http://www.w3.org/2000/svg">
<path d="M30.8012 42.8998C27.8348 42.8998 24.566 44.0998 21.5828 45.6478C16.7876 48.1366 14.39 49.3822 13.2092 48.5878C12.0284 47.7958 12.2516 45.3358 12.7004 40.4182L12.8012 39.2998" fill="#F59E14"/>
<path fill-rule="evenodd" clip-rule="evenodd" d="M47.1872 40.0872C44.3768 42.9 39.8504 42.9 30.8 42.9L11.6 42.6552C8.48 42.3504 6.38 41.6568 4.8128 40.0872C2 37.2768 2 32.7504 2 23.7C2 14.6496 2 10.1232 4.8128 7.3128C7.6232 4.5 12.1496 4.5 21.2 4.5H30.8C39.8504 4.5 44.3768 4.5 47.1872 7.3128C50 10.1232 50 14.6496 50 23.7C50 32.7504 50 37.2768 47.1872 40.0872ZM12.5 14.5C11.6716 14.5 11 15.1716 11 16C11 16.8284 11.6716 17.5 12.5 17.5H27.5C28.3284 17.5 29 16.8284 29 16C29 15.1716 28.3284 14.5 27.5 14.5H12.5ZM12.5 21.5C11.6716 21.5 11 22.1716 11 23C11 23.8284 11.6716 24.5 12.5 24.5H36.5C37.3284 24.5 38 23.8284 38 23C38 22.1716 37.3284 21.5 36.5 21.5H12.5ZM11 30C11 29.1716 11.6716 28.5 12.5 28.5H31.5C32.3284 28.5 33 29.1716 33 30C33 30.8284 32.3284 31.5 31.5 31.5H12.5C11.6716 31.5 11 30.8284 11 30Z" fill="#F59E14"/>
</svg>
